# xmcd CD database file
#
# Track frame offsets:
#	182
#	1595
#	12175
#	24807
#	41920
#	57847
#	70717
#	86795
#	99632
#	118495
#	128827
#	138075
#	150075
#	159317
#
# Disc length: 2336 seconds
#
# Revision: 2
# Processed by: cddbd v1.5.2PL0 Copyright (c) Steve Scherf et al.
# Submitted via: CDex 1.51
#
DISCID=a0091e0e
DTITLE=Paul Horn - Inside The Cathedral
DYEAR=1900
DGENRE=New Age
TTITLE0=test
TTITLE1=Song for frie friendsship
TTITLE2=Song for peace
TTITLE3=Moscow blues
TTITLE4=Song for love
TTITLE5=Syrinx
TTITLE6=Song for understanding
TTITLE7=Song for eugene
TTITLE8=Song for edward
TTITLE9=Song for marina
TTITLE10=Song for riya
TTITLE11=Oche cherrnouiye
TTITLE12=Song for rimsky
TTITLE13=Song for trane
EXTD=
EXTT0=
EXTT1=
EXTT2=
EXTT3=
EXTT4=
EXTT5=
EXTT6=
EXTT7=
EXTT8=
EXTT9=
EXTT10=
EXTT11=
EXTT12=
EXTT13=
PLAYORDER=
